{
  "accessors": [
    {
      "bufferView": 3,
      "componentType": 5126,
      "count": 87,
      "max": [
        0.06181799992918968,
        1.9174000024795532,
        0.09684786200523376
      ],
      "min": [
        -0.03955800086259842,
        1.8544700145721436,
        0.004761855583637953
      ],
      "type": "VEC3"
    },
    {
      "bufferView": 3,
      "byteOffset": 1044,
      "componentType": 5126,
      "count": 87,
      "max": [
        0.8519898653030396,
        0.9990767240524292,
        0.9365711212158203
      ],
      "min": [
        -0.6605923771858215,
        -0.18770284950733185,
        -0.03029913641512394
      ],
      "type": "VEC3"
    },
    {
      "bufferView": 2,
      "componentType": 5126,
      "count": 87,
      "max": [
        0.9296000003814697,
        0.012700021266937256
      ],
      "min": [
        0.023600000888109207,
        -0.9641000032424927
      ],
      "type": "VEC2"
    },
    {
      "bufferView": 1,
      "componentType": 5125,
      "count": 255,
      "type": "SCALAR"
    },
    {
      "bufferView": 3,
      "byteOffset": 2088,
      "componentType": 5126,
      "count": 1692,
      "max": [
        0.10112100094556808,
        1.9114700555801392,
        0.13078086078166962
      ],
      "min": [
        -0.10009100288152695,
        1.620110034942627,
        -0.09648413211107254
      ],
      "type": "VEC3"
    },
    {
      "bufferView": 3,
      "byteOffset": 22392,
      "componentType": 5126,
      "count": 1692,
      "max": [
        0.9993581771850586,
        0.9986686110496521,
        0.9999809265136719
      ],
      "min": [
        -0.9993780851364136,
        -0.9999675750732422,
        -0.9988086819648743
      ],
      "type": "VEC3"
    },
    {
      "bufferView": 4,
      "componentType": 5126,
      "count": 1692,
      "max": [
        0.9999992847442627,
        0.9912938475608826,
        0.9999163746833801,
        1.0
      ],
      "min": [
        -0.9998595714569092,
        -0.991260290145874,
        -0.9998993873596191,
        -1.0
      ],
      "type": "VEC4"
    },
    {
      "bufferView": 2,
      "byteOffset": 696,
      "componentType": 5126,
      "count": 1692,
      "max": [
        0.9977999925613403,
        -0.14750003814697266
      ],
      "min": [
        0.002199999988079071,
        -0.9932999610900879
      ],
      "type": "VEC2"
    },
    {
      "bufferView": 1,
      "byteOffset": 1020,
      "componentType": 5125,
      "count": 9372,
      "type": "SCALAR"
    },
    {
      "bufferView": 3,
      "byteOffset": 42696,
      "componentType": 5126,
      "count": 148,
      "max": [
        0.028435999527573586,
        1.7383899688720703,
        0.10999787598848343
      ],
      "min": [
        -0.029624000191688538,
        1.7242300510406494,
        0.0700678750872612
      ],
      "type": "VEC3"
    },
    {
      "bufferView": 3,
      "byteOffset": 44472,
      "componentType": 5126,
      "count": 148,
      "max": [
        0.9796532988548279,
        0.5202006101608276,
        0.9903730154037476
      ],
      "min": [
        -0.9937654137611389,
        -0.9977140426635742,
        -0.5478949546813965
      ],
      "type": "VEC3"
    },
    {
      "bufferView": 2,
      "byteOffset": 14232,
      "componentType": 5126,
      "count": 148,
      "max": [
        0.899399995803833,
        -0.5550999641418457
      ],
      "min": [
        0.10100000351667404,
        -0.976699948310852
      ],
      "type": "VEC2"
    },
    {
      "bufferView": 1,
      "byteOffset": 38508,
      "componentType": 5125,
      "count": 729,
      "type": "SCALAR"
    },
    {
      "bufferView": 3,
      "byteOffset": 46248,
      "componentType": 5126,
      "count": 149,
      "max": [
        0.028456000611186028,
        1.7239099740982056,
        0.1074688732624054
      ],
      "min": [
        -0.029563000425696373,
        1.7103999853134155,
        0.06806087493896484
      ],
      "type": "VEC3"
    },
    {
      "bufferView": 3,
      "byteOffset": 48036,
      "componentType": 5126,
      "count": 149,
      "max": [
        0.9864664077758789,
        0.9925991296768188,
        0.9978584051132202
      ],
      "min": [
        -0.9837112426757813,
        -0.5698221921920776,
        -0.5649082660675049
      ],
      "type": "VEC3"
    },
    {
      "bufferView": 2,
      "byteOffset": 15416,
      "componentType": 5126,
      "count": 149,
      "max": [
        0.9980999827384949,
        -0.02110004425048828
      ],
      "min": [
        0.0027000000700354576,
        -0.44040000438690186
      ],
      "type": "VEC2"
    },
    {
      "bufferView": 1,
      "byteOffset": 41424,
      "componentType": 5125,
      "count": 702,
      "type": "SCALAR"
    },
    {
      "bufferView": 3,
      "byteOffset": 49824,
      "componentType": 5126,
      "count": 46,
      "max": [
        0.033705998212099075,
        1.7410099506378174,
        0.11063987016677856
      ],
      "min": [
        -0.03267800062894821,
        1.6960200071334839,
        0.05717787146568298
      ],
      "type": "VEC3"
    },
    {
      "bufferView": 3,
      "byteOffset": 50376,
      "componentType": 5126,
      "count": 46,
      "max": [
        0.9810319542884827,
        0.976639986038208,
        0.6527024507522583
      ],
      "min": [
        -0.912174642086029,
        -0.9806141257286072,
        -0.9523129463195801
      ],
      "type": "VEC3"
    },
    {
      "bufferView": 2,
      "byteOffset": 16608,
      "componentType": 5126,
      "count": 46,
      "max": [
        0.9829999804496765,
        -0.47290003299713135
      ],
      "min": [
        0.016499999910593033,
        -0.5462000370025635
      ],
      "type": "VEC2"
    },
    {
      "bufferView": 1,
      "byteOffset": 44232,
      "componentType": 5125,
      "count": 204,
      "type": "SCALAR"
    },
    {
      "bufferView": 3,
      "byteOffset": 50928,
      "componentType": 5126,
      "count": 146,
      "max": [
        0.04621800035238266,
        1.8097699880599976,
        0.0927528664469719
      ],
      "min": [
        -0.04544299840927124,
        1.7788000106811523,
        0.08024386316537857
      ],
      "type": "VEC3"
    },
    {
      "bufferView": 3,
      "byteOffset": 52680,
      "componentType": 5126,
      "count": 146,
      "max": [
        0.8904810547828674,
        0.9182009100914001,
        0.998075008392334
      ],
      "min": [
        -0.8777331709861755,
        -0.8383285403251648,
        0.3805016577243805
      ],
      "type": "VEC3"
    },
    {
      "bufferView": 2,
      "byteOffset": 16976,
      "componentType": 5126,
      "count": 146,
      "max": [
        0.9672999978065491,
        -1.0255999565124512
      ],
      "min": [
        0.021700000390410423,
        -1.9711999893188477
      ],
      "type": "VEC2"
    },
    {
      "bufferView": 1,
      "byteOffset": 45048,
      "componentType": 5125,
      "count": 792,
      "type": "SCALAR"
    },
    {
      "bufferView": 5,
      "componentType": 5126,
      "count": 72,
      "max": [
        1.0,
        0.8735150098800659,
        0.7980179190635681,
        0.0,
        0.9908367991447449,
        1.0000001192092896,
        0.9539426565170288,
        0.0,
        0.45508602261543274,
        1.0000001192092896,
        1.0000001192092896,
        0.0,
        1.724381446838379,
        1.7243069410324097,
        1.823975682258606,
        1.0
      ],
      "min": [
        -0.6149504780769348,
        -0.8735151290893555,
        -0.7980176210403442,
        0.0,
        -0.9908366203308105,
        -0.9999926090240479,
        -1.0000001192092896,
        0.0,
        -0.4550861120223999,
        -0.9539419412612915,
        -0.9999926090240479,
        0.0,
        -1.724381446838379,
        -1.7985312938690186,
        -1.677843451499939,
        1.0
      ],
      "type": "MAT4"
    },
    {
      "bufferView": 0,
      "componentType": 5123,
      "count": 87,
      "type": "VEC4"
    },
    {
      "bufferView": 4,
      "byteOffset": 27072,
      "componentType": 5126,
      "count": 87,
      "max": [
        1.0,
        0.0,
        0.0,
        0.0
      ],
      "min": [
        1.0,
        0.0,
        0.0,
        0.0
      ],
      "type": "VEC4"
    },
    {
      "bufferView": 0,
      "byteOffset": 696,
      "componentType": 5123,
      "count": 1692,
      "type": "VEC4"
    },
    {
      "bufferView": 4,
      "byteOffset": 28464,
      "componentType": 5126,
      "count": 1692,
      "max": [
        1.0,
        0.4955422878265381,
        0.3002013862133026,
        0.21787701547145844
      ],
      "min": [
        0.2741623520851135,
        0.0,
        0.0,
        0.0
      ],
      "type": "VEC4"
    },
    {
      "bufferView": 0,
      "byteOffset": 14232,
      "componentType": 5123,
      "count": 148,
      "type": "VEC4"
    },
    {
      "bufferView": 4,
      "byteOffset": 55536,
      "componentType": 5126,
      "count": 148,
      "max": [
        1.0,
        0.10795392096042633,
        0.012098140083253384,
        0.0
      ],
      "min": [
        0.8799479007720947,
        0.0,
        0.0,
        0.0
      ],
      "type": "VEC4"
    },
    {
      "bufferView": 0,
      "byteOffset": 15416,
      "componentType": 5123,
      "count": 149,
      "type": "VEC4"
    },
    {
      "bufferView": 4,
      "byteOffset": 57904,
      "componentType": 5126,
      "count": 149,
      "max": [
        1.0,
        0.37650272250175476,
        0.0,
        0.0
      ],
      "min": [
        0.6234973073005676,
        0.0,
        0.0,
        0.0
      ],
      "type": "VEC4"
    },
    {
      "bufferView": 0,
      "byteOffset": 16608,
      "componentType": 5123,
      "count": 46,
      "type": "VEC4"
    },
    {
      "bufferView": 4,
      "byteOffset": 60288,
      "componentType": 5126,
      "count": 46,
      "max": [
        1.0,
        0.4274636507034302,
        0.2305755913257599,
        0.20039834082126617
      ],
      "min": [
        0.313796728849411,
        0.0,
        0.0,
        0.0
      ],
      "type": "VEC4"
    },
    {
      "bufferView": 0,
      "byteOffset": 16976,
      "componentType": 5123,
      "count": 146,
      "type": "VEC4"
    },
    {
      "bufferView": 4,
      "byteOffset": 61024,
      "componentType": 5126,
      "count": 146,
      "max": [
        1.0,
        0.013249405659735203,
        0.0,
        0.0
      ],
      "min": [
        0.986750602722168,
        0.0,
        0.0,
        0.0
      ],
      "type": "VEC4"
    }
  ],
  "asset": {
    "extras": {
      "author": "photon (that one larry) (https://sketchfab.com/Professor_E12)",
      "license": "CC-BY-4.0 (http://creativecommons.org/licenses/by/4.0/)",
      "source": "https://sketchfab.com/3d-models/magnusson-head-rigged-21b94285e97241b4a249bd98a41128c7",
      "title": "magnusson head rigged"
    },
    "generator": "Sketchfab-17.17.0",
    "version": "2.0"
  },
  "bufferViews": [
    {
      "buffer": 0,
      "byteLength": 18144,
      "byteStride": 8,
      "name": "shortBufferViews",
      "target": 34962
    },
    {
      "buffer": 0,
      "byteLength": 48216,
      "byteOffset": 18144,
      "name": "floatBufferViews",
      "target": 34963
    },
    {
      "buffer": 0,
      "byteLength": 18144,
      "byteOffset": 66360,
      "byteStride": 8,
      "name": "floatBufferViews",
      "target": 34962
    },
    {
      "buffer": 0,
      "byteLength": 54432,
      "byteOffset": 84504,
      "byteStride": 12,
      "name": "floatBufferViews",
      "target": 34962
    },
    {
      "buffer": 0,
      "byteLength": 63360,
      "byteOffset": 138936,
      "byteStride": 16,
      "name": "floatBufferViews",
      "target": 34962
    },
    {
      "buffer": 0,
      "byteLength": 4608,
      "byteOffset": 202296,
      "name": "floatBufferViews"
    }
  ],
  "buffers": [
    {
      "byteLength": 206904,
      "uri": "scene.bin"
    }
  ],
  "extensionsUsed": [
    "KHR_materials_specular"
  ],
  "images": [
    {
      "uri": "textures/magnusson_hair_baseColor.png"
    },
    {
      "uri": "textures/magnusson_hair_specularf0.png"
    },
    {
      "uri": "textures/magnusson_face_baseColor.png"
    },
    {
      "uri": "textures/magnusson_face_metallicRoughness.png"
    },
    {
      "uri": "textures/magnusson_face_normal.png"
    },
    {
      "uri": "textures/teeth_upper_baseColor.png"
    },
    {
      "uri": "textures/eyes_baseColor.png"
    }
  ],
  "materials": [
    {
      "alphaMode": "BLEND",
      "doubleSided": true,
      "extensions": {
        "KHR_materials_specular": {
          "specularColorFactor": [
            1.0,
            1.0,
            1.0
          ],
          "specularFactor": 1.0,
          "specularTexture": {
            "index": 1
          }
        }
      },
      "name": "magnusson_hair",
      "pbrMetallicRoughness": {
        "baseColorTexture": {
          "index": 0
        },
        "metallicFactor": 0.0,
        "roughnessFactor": 0.4
      }
    },
    {
      "doubleSided": true,
      "name": "magnusson_face",
      "normalTexture": {
        "index": 4
      },
      "pbrMetallicRoughness": {
        "baseColorTexture": {
          "index": 2
        },
        "metallicRoughnessTexture": {
          "index": 3
        }
      }
    },
    {
      "doubleSided": true,
      "name": "teeth_upper",
      "pbrMetallicRoughness": {
        "baseColorTexture": {
          "index": 5
        },
        "metallicFactor": 0.0,
        "roughnessFactor": 0.4
      }
    },
    {
      "doubleSided": true,
      "name": "teeth_lower",
      "pbrMetallicRoughness": {
        "baseColorTexture": {
          "index": 5
        },
        "metallicFactor": 0.0,
        "roughnessFactor": 0.4
      }
    },
    {
      "doubleSided": true,
      "name": "mouth",
      "pbrMetallicRoughness": {
        "baseColorTexture": {
          "index": 5
        },
        "metallicFactor": 0.0,
        "roughnessFactor": 0.4
      }
    },
    {
      "doubleSided": true,
      "name": "eyes",
      "pbrMetallicRoughness": {
        "baseColorTexture": {
          "index": 6
        },
        "metallicFactor": 0.0,
        "roughnessFactor": 0.4
      }
    }
  ],
  "meshes": [
    {
      "name": "Object_0",
      "primitives": [
        {
          "attributes": {
            "JOINTS_0": 26,
            "NORMAL": 1,
            "POSITION": 0,
            "TEXCOORD_0": 2,
            "WEIGHTS_0": 27
          },
          "indices": 3,
          "material": 0,
          "mode": 4
        }
      ]
    },
    {
      "name": "Object_1",
      "primitives": [
        {
          "attributes": {
            "JOINTS_0": 28,
            "NORMAL": 5,
            "POSITION": 4,
            "TANGENT": 6,
            "TEXCOORD_0": 7,
            "TEXCOORD_1": 7,
            "TEXCOORD_2": 7,
            "TEXCOORD_3": 7,
            "WEIGHTS_0": 29
          },
          "indices": 8,
          "material": 1,
          "mode": 4
        }
      ]
    },
    {
      "name": "Object_2",
      "primitives": [
        {
          "attributes": {
            "JOINTS_0": 30,
            "NORMAL": 10,
            "POSITION": 9,
            "TEXCOORD_0": 11,
            "WEIGHTS_0": 31
          },
          "indices": 12,
          "material": 2,
          "mode": 4
        }
      ]
    },
    {
      "name": "Object_3",
      "primitives": [
        {
          "attributes": {
            "JOINTS_0": 32,
            "NORMAL": 14,
            "POSITION": 13,
            "TEXCOORD_0": 15,
            "WEIGHTS_0": 33
          },
          "indices": 16,
          "material": 3,
          "mode": 4
        }
      ]
    },
    {
      "name": "Object_4",
      "primitives": [
        {
          "attributes": {
            "JOINTS_0": 34,
            "NORMAL": 18,
            "POSITION": 17,
            "TEXCOORD_0": 19,
            "WEIGHTS_0": 35
          },
          "indices": 20,
          "material": 4,
          "mode": 4
        }
      ]
    },
    {
      "name": "Object_5",
      "primitives": [
        {
          "attributes": {
            "JOINTS_0": 36,
            "NORMAL": 22,
            "POSITION": 21,
            "TEXCOORD_0": 23,
            "WEIGHTS_0": 37
          },
          "indices": 24,
          "material": 5,
          "mode": 4
        }
      ]
    }
  ],
  "nodes": [
    {
      "children": [
        1
      ],
      "matrix": [
        1.0,
        0.0,
        0.0,
        0.0,
        0.0,
        2.220446049250313e-16,
        -1.0,
        0.0,
        0.0,
        1.0,
        2.220446049250313e-16,
        0.0,
        0.0,
        0.0,
        0.0,
        1.0
      ],
      "name": "Sketchfab_model"
    },
    {
      "children": [
        2
      ],
      "name": "root"
    },
    {
      "children": [
        3
      ],
      "matrix": [
        1.0,
        0.0,
        0.0,
        0.0,
        0.0,
        2.220446049250313e-16,
        1.0,
        0.0,
        0.0,
        -1.0,
        2.220446049250313e-16,
        0.0,
        0.0,
        0.0,
        0.0,
        1.0
      ],
      "name": "GLTF_SceneRootNode"
    },
    {
      "children": [
        4
      ],
      "name": "Armature_77"
    },
    {
      "children": [
        5,
        7,
        9,
        11,
        13,
        15,
        17,
        6,
        8,
        10,
        12,
        14,
        16
      ],
      "name": "GLTF_created_0"
    },
    {
      "children": [
        18
      ],
      "name": "GLTF_created_0_rootJoint"
    },
    {
      "name": "4_+HL2_Magnusson.Material3158_0.1_0_0_71"
    },
    {
      "mesh": 0,
      "name": "Object_7",
      "skin": 0
    },
    {
      "name": "4_+HL2_Magnusson.Material3158_0.1_0_0.001_72"
    },
    {
      "mesh": 1,
      "name": "Object_9",
      "skin": 0
    },
    {
      "name": "4_+HL2_Magnusson.Material3158_0.1_0_0.002_73"
    },
    {
      "mesh": 2,
      "name": "Object_11",
      "skin": 0
    },
    {
      "name": "4_+HL2_Magnusson.Material3158_0.1_0_0.003_74"
    },
    {
      "mesh": 3,
      "name": "Object_13",
      "skin": 0
    },
    {
      "name": "4_+HL2_Magnusson.Material3158_0.1_0_0.004_75"
    },
    {
      "mesh": 4,
      "name": "Object_15",
      "skin": 0
    },
    {
      "name": "4_+HL2_Magnusson.Material3158_0.1_0_0.005_76"
    },
    {
      "mesh": 5,
      "name": "Object_17",
      "skin": 0
    },
    {
      "children": [
        19
      ],
      "name": "Spine4_70",
      "rotation": [
        0.0148432282730937,
        1.1919611608846026e-07,
        1.769454138766946e-09,
        0.9998898506164551
      ],
      "scale": [
        1.0,
        0.9999998807907104,
        0.9999998807907104
      ],
      "translation": [
        2.4503056448445086e-16,
        1.5689011812210083,
        -0.010542605072259903
      ]
    },
    {
      "children": [
        20
      ],
      "name": "Neck_69",
      "rotation": [
        0.09278946369886398,
        -1.1869497029692866e-07,
        1.1061358939912225e-08,
        0.9956857562065125
      ],
      "translation": [
        -4.2110325029064307e-16,
        0.07175317406654358,
        -9.313225746154785e-10
      ]
    },
    {
      "children": [
        21,
        29,
        38,
        39,
        40,
        41,
        42,
        43,
        44,
        45,
        46,
        47,
        48,
        49,
        53,
        57,
        58,
        59,
        60,
        61,
        62,
        63,
        64,
        65,
        66,
        67,
        68,
        69,
        70,
        71,
        72,
        73,
        74,
        75,
        76,
        77,
        78,
        79,
        80,
        81,
        82,
        83,
        84,
        85,
        86,
        87,
        88
      ],
      "name": "Head_68",
      "rotation": [
        0.30938127636909485,
        -2.26721411422659e-07,
        -7.376229405053891e-08,
        0.9509381055831909
      ],
      "translation": [
        -2.514629062161204e-21,
        0.06141228228807449,
        -3.026798367500305e-08
      ]
    },
    {
      "children": [
        22,
        23,
        24,
        25,
        26,
        27,
        28
      ],
      "name": "Jaw_Upper_7",
      "rotation": [
        0.3610687851905823,
        2.2233479057831573e-07,
        -8.608556356648478e-08,
        0.9325392246246338
      ],
      "scale": [
        1.0,
        1.0,
        0.9999999403953552
      ],
      "translation": [
        3.6178611217962953e-09,
        0.06823435425758362,
        0.007587175816297531
      ]
    },
    {
      "name": "Lip_Upper_C_0",
      "rotation": [
        -0.7264499068260193,
        1.8216332915298346e-16,
        -1.153363984271982e-18,
        0.6872194409370422
      ],
      "scale": [
        1.0,
        1.0000001192092896,
        1.0000001192092896
      ],
      "translation": [
        8.70442820334041e-18,
        0.05553040653467178,
        0.009040359407663345
      ]
    },
    {
      "name": "Lip_Upper_L_1",
      "rotation": [
        -0.7300330400466919,
        0.0,
        0.0,
        0.6834118366241455
      ],
      "scale": [
        1.0,
        1.0,
        1.0000001192092896
      ],
      "translation": [
        0.007264984771609306,
        0.05305810272693634,
        0.009403805248439312
      ]
    },
    {
      "name": "Lip_Upper_L.001_2",
      "rotation": [
        -0.7328168749809265,
        0.0,
        0.0,
        0.6804260015487671
      ],
      "translation": [
        0.013456732966005802,
        0.05001520738005638,
        0.01034819521009922
      ]
    },
    {
      "name": "Lip_Upper_L.002_3",
      "rotation": [
        -0.7139154672622681,
        0.0,
        0.0,
        0.7002319097518921
      ],
      "scale": [
        1.0,
        1.0000001192092896,
        1.0000001192092896
      ],
      "translation": [
        0.019648481160402298,
        0.04701487347483635,
        0.011393153108656406
      ]
    },
    {
      "name": "Lip_Upper_R_4",
      "rotation": [
        -0.7300330400466919,
        0.0,
        0.0,
        0.6834118366241455
      ],
      "scale": [
        1.0,
        1.0,
        1.0000001192092896
      ],
      "translation": [
        -0.007264984771609306,
        0.05305810272693634,
        0.009403804317116737
      ]
    },
    {
      "name": "Lip_Upper_R.001_5",
      "rotation": [
        -0.7328168749809265,
        0.0,
        0.0,
        0.6804260015487671
      ],
      "translation": [
        -0.013456732966005802,
        0.05001520738005638,
        0.01034819521009922
      ]
    },
    {
      "name": "Lip_Upper_R.002_6",
      "rotation": [
        -0.7139154672622681,
        0.0,
        0.0,
        0.7002319097518921
      ],
      "scale": [
        1.0,
        1.0000001192092896,
        1.0000001192092896
      ],
      "translation": [
        -0.019648481160402298,
        0.04701486974954605,
        0.011393153108656406
      ]
    },
    {
      "children": [
        30,
        31,
        32,
        33,
        34,
        35,
        36,
        37
      ],
      "name": "Jaw_Lower_16",
      "rotation": [
        0.47295382618904114,
        4.2013468259938236e-07,
        -4.032192873863749e-13,
        0.8810872435569763
      ],
      "scale": [
        1.0,
        1.0,
        0.9999999403953552
      ],
      "translation": [
        8.419128505465778e-09,
        0.044983115047216415,
        0.017656173557043076
      ]
    },
    {
      "name": "Chin_8",
      "rotation": [
        0.3963438868522644,
        6.036619771762619e-13,
        1.889912368824298e-07,
        0.9181021451950073
      ],
      "translation": [
        8.200926239097447e-14,
        0.052097171545028687,
        -1.30385160446167e-08
      ]
    },
    {
      "name": "Lip_Lower_C_9",
      "rotation": [
        0.6113652586936951,
        -1.8867169160330377e-07,
        1.4576043838587793e-07,
        0.7913485765457153
      ],
      "scale": [
        1.0,
        0.9999999403953552,
        1.0
      ],
      "translation": [
        9.537934886338917e-09,
        0.059931956231594086,
        -0.020002471283078194
      ]
    },
    {
      "name": "Lip_Lower_L_10",
      "rotation": [
        0.6117200255393982,
        -1.874152530945139e-07,
        1.4430472106141679e-07,
        0.7910743355751038
      ],
      "translation": [
        0.0072649940848350525,
        0.057874880731105804,
        -0.01938551478087902
      ]
    },
    {
      "name": "Lip_Lower_L.001_11",
      "rotation": [
        0.6249021887779236,
        -1.9484349422782543e-07,
        1.5986931600764365e-07,
        0.780703067779541
      ],
      "translation": [
        0.013456742279231548,
        0.056216806173324585,
        -0.019142884761095047
      ]
    },
    {
      "name": "Lip_Lower_L.002_12",
      "rotation": [
        0.6145280003547668,
        -1.810503817978315e-07,
        1.3748166338700685e-07,
        0.7888950109481812
      ],
      "scale": [
        1.0,
        1.0000001192092896,
        1.0
      ],
      "translation": [
        0.019648488610982895,
        0.05368310958147049,
        -0.01908893696963787
      ]
    },
    {
      "name": "Lip_Lower_R_13",
      "rotation": [
        0.6117200255393982,
        -1.874152530945139e-07,
        1.4430472106141679e-07,
        0.7910743355751038
      ],
      "translation": [
        -0.00726497545838356,
        0.057874880731105804,
        -0.019385522231459618
      ]
    },
    {
      "name": "Lip_Lower_R.001_14",
      "rotation": [
        0.6249021887779236,
        -1.9484349422782543e-07,
        1.5986931600764365e-07,
        0.780703067779541
      ],
      "translation": [
        -0.013456723652780056,
        0.05621681362390518,
        -0.01914289779961109
      ]
    },
    {
      "name": "Lip_Lower_R.002_15",
      "rotation": [
        0.6145280003547668,
        -1.810503817978315e-07,
        1.3748166338700685e-07,
        0.7888950109481812
      ],
      "scale": [
        1.0,
        1.0000001192092896,
        1.0
      ],
      "translation": [
        -0.0196484737098217,
        0.05368310213088989,
        -0.019088953733444214
      ]
    },
    {
      "name": "Lip_L_17",
      "rotation": [
        0.9129374027252197,
        9.476120510498731e-08,
        -2.1652714110587112e-07,
        0.4080996811389923
      ],
      "translation": [
        0.03100830502808094,
        0.09033603221178055,
        0.04916521906852722
      ]
    },
    {
      "name": "Lip_R_18",
      "rotation": [
        0.9129374027252197,
        9.476120510498731e-08,
        -2.1652714110587112e-07,
        0.4080996811389923
      ],
      "translation": [
        -0.03100825659930706,
        0.09033603221178055,
        0.04916524887084961
      ]
    },
    {
      "name": "Cheek_L_19",
      "rotation": [
        0.06603755801916122,
        -0.5418590903282166,
        -0.49496152997016907,
        0.6760479807853699
      ],
      "scale": [
        1.0,
        1.0000001192092896,
        1.0
      ],
      "translation": [
        0.02316814474761486,
        0.061326175928115845,
        0.012575939297676086
      ]
    },
    {
      "name": "Cheek_R_20",
      "rotation": [
        0.06603789329528809,
        0.5418594479560852,
        0.4949614703655243,
        0.6760478019714355
      ],
      "scale": [
        1.0,
        0.9999998211860657,
        0.9999998807907104
      ],
      "translation": [
        -0.023168133571743965,
        0.061326175928115845,
        0.012575961649417877
      ]
    },
    {
      "name": "Nose_21",
      "rotation": [
        0.3254915773868561,
        1.1271837507820237e-07,
        -1.164047489510267e-07,
        0.945544958114624
      ],
      "translation": [
        1.0039811648709929e-08,
        0.11923524737358093,
        0.021054960787296295
      ]
    },
    {
      "name": "Nostril_L_22",
      "rotation": [
        0.31302160024642944,
        0.07635995745658875,
        -0.2218238264322281,
        0.9203156232833862
      ],
      "translation": [
        0.011265931650996208,
        0.1132950559258461,
        0.023398036137223244
      ]
    },
    {
      "name": "Nostril_R_23",
      "rotation": [
        0.31302180886268616,
        -0.07635946571826935,
        0.22182363271713257,
        0.920315682888031
      ],
      "translation": [
        -0.011265909299254417,
        0.1132950633764267,
        0.023398054763674736
      ]
    },
    {
      "name": "Forehead_24",
      "rotation": [
        0.18614700436592102,
        -1.171254808696176e-07,
        -1.1095229268676121e-07,
        0.9825220108032227
      ],
      "scale": [
        1.0,
        0.9999999403953552,
        1.0
      ],
      "translation": [
        -3.627097555636283e-08,
        0.1049986258149147,
        -0.07606576383113861
      ]
    },
    {
      "name": "Temple_L_25",
      "rotation": [
        0.37085118889808655,
        -0.0041404603980481625,
        -0.10774935781955719,
        0.9224111437797546
      ],
      "scale": [
        0.9999999403953552,
        0.9999998807907104,
        1.0
      ],
      "translation": [
        0.03310991823673248,
        0.08954303711652756,
        -0.09162265807390213
      ]
    },
    {
      "name": "Temple_R_26",
      "rotation": [
        0.3708513081073761,
        0.004140924662351608,
        0.10774914920330048,
        0.9224111437797546
      ],
      "scale": [
        1.0,
        1.0000001192092896,
        1.0
      ],
      "translation": [
        -0.033110007643699646,
        0.08954304456710815,
        -0.09162262082099915
      ]
    },
    {
      "name": "Backhead_27",
      "rotation": [
        -0.9778749942779541,
        -2.4937309106576322e-08,
        5.828587745781988e-07,
        0.20919036865234375
      ],
      "scale": [
        1.0,
        1.0,
        0.9999991059303284
      ],
      "translation": [
        -2.166505552736453e-08,
        0.037917736917734146,
        -0.04543491080403328
      ]
    },
    {
      "children": [
        50
      ],
      "name": "Eyebrow_L_31",
      "rotation": [
        -0.47412100434303284,
        -0.1270485371351242,
        -0.5760202407836914,
        0.6536579728126526
      ],
      "scale": [
        1.0000001192092896,
        1.0,
        0.9999999403953552
      ],
      "translation": [
        0.017262082546949387,
        0.1488506942987442,
        -0.00817898754030466
      ]
    },
    {
      "children": [
        51
      ],
      "name": "Eyebrow_L.001_30",
      "rotation": [
        -4.675240177220985e-07,
        -2.308601779077435e-06,
        -3.527315584506141e-06,
        1.0
      ],
      "scale": [
        1.0,
        0.9999998211860657,
        0.9999998807907104
      ],
      "translation": [
        -3.895885924976028e-08,
        0.015874236822128296,
        5.587935447692871e-09
      ]
    },
    {
      "children": [
        52
      ],
      "name": "Eyebrow_L.002_29",
      "rotation": [
        -0.2123156040906906,
        0.19784507155418396,
        -0.43572840094566345,
        0.8520095348358154
      ],
      "scale": [
        0.9999999403953552,
        0.9999999403953552,
        0.9999999403953552
      ],
      "translation": [
        -1.3122465247761284e-07,
        0.015874218195676804,
        -9.313225746154785e-09
      ]
    },
    {
      "name": "Eyebrow_L.003_28",
      "rotation": [
        -1.5161932651608367e-06,
        1.1995434761047363e-06,
        3.352761495989398e-06,
        1.0
      ],
      "scale": [
        1.0,
        0.9999999403953552,
        1.0
      ],
      "translation": [
        3.166496753692627e-08,
        0.013560047373175621,
        8.568167686462402e-08
      ]
    },
    {
      "children": [
        54
      ],
      "name": "Eyebrow_R_35",
      "rotation": [
        -0.47412070631980896,
        0.1270488202571869,
        0.5760204792022705,
        0.6536579132080078
      ],
      "scale": [
        1.0,
        0.9999999403953552,
        0.9999999403953552
      ],
      "translation": [
        -0.017262089997529984,
        0.1488506942987442,
        -0.008178970776498318
      ]
    },
    {
      "children": [
        55
      ],
      "name": "Eyebrow_R.001_34",
      "rotation": [
        -5.373731255531311e-07,
        2.371844857407268e-06,
        3.4440431591065135e-06,
        1.0
      ],
      "translation": [
        5.0297302323087933e-08,
        0.015874257311224937,
        2.0489096641540527e-08
      ]
    },
    {
      "children": [
        56
      ],
      "name": "Eyebrow_R.002_33",
      "rotation": [
        -0.2123156487941742,
        -0.19784514605998993,
        0.4357284903526306,
        0.8520094156265259
      ],
      "scale": [
        1.0000001192092896,
        1.0000001192092896,
        1.0
      ],
      "translation": [
        1.0075098089146195e-08,
        0.01587425172328949,
        1.862645149230957e-09
      ]
    },
    {
      "name": "Eyebrow_R.003_32",
      "rotation": [
        -1.490116346758441e-06,
        -1.1101366226284881e-06,
        -3.371388174855383e-06,
        1.0
      ],
      "scale": [
        0.9999998807907104,
        0.9999998807907104,
        0.9999999403953552
      ],
      "translation": [
        -1.6763806343078613e-08,
        0.013560108840465546,
        1.1175870895385742e-08
      ]
    },
    {
      "name": "Eyelid_upper_L_36",
      "rotation": [
        -0.4098678529262543,
        3.1782889209353016e-07,
        3.0211342760821935e-08,
        0.9121450185775757
      ],
      "scale": [
        1.0,
        0.9999999403953552,
        1.0
      ],
      "translation": [
        0.018823770806193352,
        0.1254584640264511,
        -0.012640075758099556
      ]
    },
    {
      "name": "Eyelid_upper_L.001_37",
      "rotation": [
        -0.409868061542511,
        3.825163616966165e-07,
        1.7417059439139848e-07,
        0.9121448397636414
      ],
      "translation": [
        0.023295599967241287,
        0.1289919763803482,
        -0.014715995639562607
      ]
    },
    {
      "name": "Eyelid_upper_L.002_38",
      "rotation": [
        -0.40986791253089905,
        3.1782889209353016e-07,
        3.021148131665541e-08,
        0.9121450185775757
      ],
      "scale": [
        1.0,
        0.9999999403953552,
        1.0
      ],
      "translation": [
        0.027011504396796227,
        0.13096410036087036,
        -0.01442880742251873
      ]
    },
    {
      "name": "Eyelid_upper_L.003_39",
      "rotation": [
        -0.40986791253089905,
        3.825164469617448e-07,
        1.741708075542192e-07,
        0.9121450185775757
      ],
      "scale": [
        1.0,
        0.9999999403953552,
        1.0
      ],
      "translation": [
        0.031324610114097595,
        0.13107436895370483,
        -0.01455291360616684
      ]
    },
    {
      "name": "Eyelid_upper_L.004_40",
      "rotation": [
        -0.40986791253089905,
        3.825164469617448e-07,
        1.741708075542192e-07,
        0.9121450185775757
      ],
      "scale": [
        1.0,
        0.9999999403953552,
        1.0
      ],
      "translation": [
        0.03583125025033951,
        0.129451721906662,
        -0.014847537502646446
      ]
    },
    {
      "name": "Eyelid_upper_L.005_41",
      "rotation": [
        -0.40986791253089905,
        3.825164469617448e-07,
        1.741708075542192e-07,
        0.9121450185775757
      ],
      "scale": [
        1.0,
        0.9999999403953552,
        1.0
      ],
      "translation": [
        0.0396135114133358,
        0.126834437251091,
        -0.014686979353427887
      ]
    },
    {
      "name": "Eyelid_upper_L.006_42",
      "rotation": [
        -0.4098680317401886,
        2.5314139406873437e-07,
        -1.1374790886975461e-07,
        0.9121448397636414
      ],
      "scale": [
        1.0,
        0.9999999403953552,
        1.0
      ],
      "translation": [
        0.04220137372612953,
        0.12274079769849777,
        -0.015482569113373756
      ]
    },
    {
      "name": "Eyelid_upper_L.007_43",
      "rotation": [
        -0.409868061542511,
        2.5314145091215323e-07,
        -1.1374790886975461e-07,
        0.9121448397636414
      ],
      "translation": [
        0.04376072809100151,
        0.1192900687456131,
        -0.016284069046378136
      ]
    },
    {
      "name": "Eyelid_lower_L_44",
      "rotation": [
        -0.40986791253089905,
        3.1782889209353016e-07,
        3.021148131665541e-08,
        0.9121450185775757
      ],
      "scale": [
        1.0,
        0.9999999403953552,
        1.0
      ],
      "translation": [
        0.023219160735607147,
        0.12484374642372131,
        -0.00979948416352272
      ]
    },
    {
      "name": "Eyelid_lower_L.001_45",
      "rotation": [
        -0.409868061542511,
        3.178288352501113e-07,
        3.021136407710401e-08,
        0.9121448397636414
      ],
      "translation": [
        0.026868712157011032,
        0.1255718469619751,
        -0.008221076801419258
      ]
    },
    {
      "name": "Eyelid_lower_L.002_46",
      "rotation": [
        -0.40986791253089905,
        3.825164469617448e-07,
        1.741708075542192e-07,
        0.9121450185775757
      ],
      "scale": [
        1.0,
        0.9999999403953552,
        1.0
      ],
      "translation": [
        0.03131452947854996,
        0.12524139881134033,
        -0.007848907262086868
      ]
    },
    {
      "name": "Eyelid_lower_L.003_47",
      "rotation": [
        -0.4098682701587677,
        2.531413372253155e-07,
        -1.137479443968914e-07,
        0.9121447205543518
      ],
      "translation": [
        0.03585987910628319,
        0.12432332336902618,
        -0.009063554927706718
      ]
    },
    {
      "name": "Eyelid_lower_L.004_48",
      "rotation": [
        -0.4098682701587677,
        2.531413372253155e-07,
        -1.1374792308060933e-07,
        0.9121447205543518
      ],
      "translation": [
        0.03967531770467758,
        0.12308559566736221,
        -0.010517783463001251
      ]
    },
    {
      "name": "Eyelid_lower_L.005_49",
      "rotation": [
        -0.409868061542511,
        2.5314145091215323e-07,
        -1.1374790886975461e-07,
        0.9121448397636414
      ],
      "translation": [
        0.04216364771127701,
        0.12121061980724335,
        -0.01360277645289898
      ]
    },
    {
      "name": "Eyelid_upper_R_50",
      "rotation": [
        -0.4098678529262543,
        1.0035661546226038e-07,
        1.2793142900591192e-07,
        0.9121450185775757
      ],
      "scale": [
        1.0,
        0.9999999403953552,
        1.0
      ],
      "translation": [
        -0.018823785707354546,
        0.1254584789276123,
        -0.012640057131648064
      ]
    },
    {
      "name": "Eyelid_upper_R.001_51",
      "rotation": [
        -0.409868061542511,
        1.6504402822192787e-07,
        2.7189076945433044e-07,
        0.9121448397636414
      ],
      "translation": [
        -0.023295611143112183,
        0.1289919763803482,
        -0.014715973287820816
      ]
    },
    {
      "name": "Eyelid_upper_R.002_52",
      "rotation": [
        -0.40986791253089905,
        1.0035663677854245e-07,
        1.2793157111445908e-07,
        0.9121450185775757
      ],
      "scale": [
        1.0,
        0.9999999403953552,
        1.0
      ],
      "translation": [
        -0.02701151929795742,
        0.13096411526203156,
        -0.014428777620196342
      ]
    },
    {
      "name": "Eyelid_upper_R.003_53",
      "rotation": [
        -0.40986791253089905,
        1.6504408506534674e-07,
        2.718909115628776e-07,
        0.9121450185775757
      ],
      "scale": [
        1.0,
        0.9999999403953552,
        1.0
      ],
      "translation": [
        -0.03132462501525879,
        0.13107436895370483,
        -0.014552876353263855
      ]
    },
    {
      "name": "Eyelid_upper_R.004_54",
      "rotation": [
        -0.40986791253089905,
        1.6504408506534674e-07,
        2.718909115628776e-07,
        0.9121450185775757
      ],
      "scale": [
        1.0,
        0.9999999403953552,
        1.0
      ],
      "translation": [
        -0.0358312651515007,
        0.129451721906662,
        -0.014847507700324059
      ]
    },
    {
      "name": "Eyelid_upper_R.005_55",
      "rotation": [
        -0.40986791253089905,
        1.6504408506534674e-07,
        2.718909115628776e-07,
        0.9121450185775757
      ],
      "scale": [
        1.0,
        0.9999999403953552,
        1.0
      ],
      "translation": [
        -0.039613526314496994,
        0.1268344521522522,
        -0.014686942100524902
      ]
    },
    {
      "name": "Eyelid_upper_R.006_56",
      "rotation": [
        -0.4098680317401886,
        3.566915296460138e-08,
        -1.6027760452175244e-08,
        0.9121448397636414
      ],
      "scale": [
        1.0,
        0.9999999403953552,
        1.0
      ],
      "translation": [
        -0.042201388627290726,
        0.12274079024791718,
        -0.015482531860470772
      ]
    },
    {
      "name": "Eyelid_upper_R.007_57",
      "rotation": [
        -0.409868061542511,
        3.566914585917402e-08,
        -1.6027749794034207e-08,
        0.9121448397636414
      ],
      "translation": [
        -0.043760742992162704,
        0.1192900687456131,
        -0.016284028068184853
      ]
    },
    {
      "name": "Eyelid_lower_R_58",
      "rotation": [
        -0.40986791253089905,
        1.0035663677854245e-07,
        1.2793157111445908e-07,
        0.9121450185775757
      ],
      "scale": [
        1.0,
        0.9999999403953552,
        1.0
      ],
      "translation": [
        -0.023219168186187744,
        0.12484374642372131,
        -0.00979946181178093
      ]
    },
    {
      "name": "Eyelid_lower_R.001_59",
      "rotation": [
        -0.409868061542511,
        1.0035656572426888e-07,
        1.279315000601855e-07,
        0.9121448397636414
      ],
      "translation": [
        -0.02686871960759163,
        0.1255718618631363,
        -0.008221043273806572
      ]
    },
    {
      "name": "Eyelid_lower_R.002_60",
      "rotation": [
        -0.40986791253089905,
        1.6504408506534674e-07,
        2.718909115628776e-07,
        0.9121450185775757
      ],
      "scale": [
        1.0,
        0.9999999403953552,
        1.0
      ],
      "translation": [
        -0.031314536929130554,
        0.12524141371250153,
        -0.007848870009183884
      ]
    },
    {
      "name": "Eyelid_lower_R.003_61",
      "rotation": [
        -0.4098682701587677,
        3.566907125218677e-08,
        -1.6027732030465813e-08,
        0.9121447205543518
      ],
      "translation": [
        -0.03585989400744438,
        0.12432331591844559,
        -0.00906352512538433
      ]
    },
    {
      "name": "Eyelid_lower_R.004_62",
      "rotation": [
        -0.4098682701587677,
        3.566906414675941e-08,
        -1.6027724925038456e-08,
        0.9121447205543518
      ],
      "translation": [
        -0.039675332605838776,
        0.12308559566736221,
        -0.010517746210098267
      ]
    },
    {
      "name": "Eyelid_lower_R.005_63",
      "rotation": [
        -0.409868061542511,
        3.566914585917402e-08,
        -1.6027749794034207e-08,
        0.9121448397636414
      ],
      "translation": [
        -0.0421636626124382,
        0.12121061235666275,
        -0.013602739199995995
      ]
    },
    {
      "name": "Ear_L_64",
      "rotation": [
        -0.5602770447731018,
        -0.05682416632771492,
        -0.2273680716753006,
        0.7944586873054504
      ],
      "translation": [
        0.0735284760594368,
        0.029689971357584,
        -0.0246475487947464
      ]
    },
    {
      "name": "Ear_R_65",
      "rotation": [
        -0.5602768659591675,
        0.05682453140616417,
        0.22736835479736328,
        0.7944585680961609
      ],
      "scale": [
        1.0,
        0.9999998211860657,
        1.0
      ],
      "translation": [
        -0.07352850586175919,
        0.02968997322022915,
        -0.02464747615158558
      ]
    },
    {
      "name": "Eye_L_66",
      "rotation": [
        0.3551635146141052,
        -8.280487122647173e-07,
        -4.62495819419928e-07,
        0.9348042011260986
      ],
      "scale": [
        1.0,
        1.0,
        0.9999999403953552
      ],
      "translation": [
        0.03127558156847954,
        0.11886298656463623,
        -0.021349482238292694
      ]
    },
    {
      "name": "Eye_R_67",
      "rotation": [
        0.3551635146141052,
        1.2595463658726658e-06,
        3.306517157852795e-07,
        0.9348042011260986
      ],
      "scale": [
        1.0,
        1.0,
        0.9999999403953552
      ],
      "translation": [
        -0.03127560392022133,
        0.11886298656463623,
        -0.021349452435970306
      ]
    }
  ],
  "samplers": [
    {
      "magFilter": 9729,
      "minFilter": 9987,
      "wrapS": 10497,
      "wrapT": 10497
    }
  ],
  "scene": 0,
  "scenes": [
    {
      "name": "Sketchfab_Scene",
      "nodes": [
        0
      ]
    }
  ],
  "skins": [
    {
      "inverseBindMatrices": 25,
      "joints": [
        5,
        18,
        19,
        20,
        21,
        22,
        23,
        24,
        25,
        26,
        27,
        28,
        29,
        30,
        31,
        32,
        33,
        34,
        35,
        36,
        37,
        38,
        39,
        40,
        41,
        42,
        43,
        44,
        45,
        46,
        47,
        48,
        49,
        50,
        51,
        52,
        53,
        54,
        55,
        56,
        57,
        58,
        59,
        60,
        61,
        62,
        63,
        64,
        65,
        66,
        67,
        68,
        69,
        70,
        71,
        72,
        73,
        74,
        75,
        76,
        77,
        78,
        79,
        80,
        81,
        82,
        83,
        84,
        85,
        86,
        87,
        88
      ],
      "skeleton": 5
    }
  ],
  "textures": [
    {
      "sampler": 0,
      "source": 0
    },
    {
      "sampler": 0,
      "source": 1
    },
    {
      "sampler": 0,
      "source": 2
    },
    {
      "sampler": 0,
      "source": 3
    },
    {
      "sampler": 0,
      "source": 4
    },
    {
      "sampler": 0,
      "source": 5
    },
    {
      "sampler": 0,
      "source": 6
    }
  ]
}
